# xmcd
#
# Track frame offsets: 
#        150
#        10073
#        23070
#        35491
#        47287
#        56819
#        72510
#        85909
#        96978
#        116890
#        129194
#        143378
#        157468
#        171089
#        180912
#        194893
#        208068
#        222526
#        233333
#        246698
#        261579
#        273924
#        286841
#        297525
#        309689
#        323442
#        337052
#
# Disc length: 4669 seconds
#
# Revision: 1
# Processed by: cddbd v1.5.2PL0 Copyright (c) Steve Scherf et al.
# Submitted via: ExactAudioCopy v1.0b1
#
DISCID=a2123b1b
DTITLE=Various Artist - Ace's wild ! CD2
DYEAR=2012
DGENRE=Blues
TTITLE0=Earl Forest - Whole Heap Of Mama
TTITLE1=B. B. King - Someday, Somewhere
TTITLE2=Earl Forest - Sad And Lonely
TTITLE3=B. B. King - Shake It Up And Go
TTITLE4=Earl Forest - Rumpus Romp
TTITLE5=B. B. King - My Own Fault, Darlin'
TTITLE6=Earl Forest - Trouble And Me
TTITLE7=B. B. King - Gotta Find My Baby
TTITLE8=Earl Forest - I Cried
TTITLE9=B. B. King - I Got A Gal
TTITLE10=Bobby Bland - Drifting From Town To Town (take 1)
TTITLE11=B. B. King - Low Down Dirty Baby
TTITLE12=Bobby Bland and Junior Parker - Love My Baby
TTITLE13=B. B. King - I'm So Glad
TTITLE14=Bobby Bland - Drifting From Town To Town (take 2)
TTITLE15=Earl Forest - I Wronged A Woman
TTITLE16=Bobby Bland - IOU Blues
TTITLE17=Earl Forest - I Can't Forgive You
TTITLE18=Earl Forest - Baby, Baby
TTITLE19=Bobby Bland - Lovin' Blues
TTITLE20=Earl Forest - Rock The Bottle
TTITLE21=Bobby Bland - Wise Man Blues
TTITLE22=Earl Forest - Pretty Bessie
TTITLE23=Bobby Band - Army Blues
TTITLE24=Earl Forest - Whoopin' And Hollerin'
TTITLE25=Bobby Bland - No Blow, No Show
TTITLE26=Johnny Fuller - Johnny Ace's Last Letter
EXTD=
EXTT0=
EXTT1=
EXTT2=
EXTT3=
EXTT4=
EXTT5=
EXTT6=
EXTT7=
EXTT8=
EXTT9=
EXTT10=
EXTT11=
EXTT12=
EXTT13=
EXTT14=
EXTT15=
EXTT16=
EXTT17=
EXTT18=
EXTT19=
EXTT20=
EXTT21=
EXTT22=
EXTT23=
EXTT24=
EXTT25=
EXTT26=
PLAYORDER=
